<svg xmlns="http://www.w3.org/2000/svg" xmlns:xlink="http://www.w3.org/1999/xlink" width="1366" zoomAndPan="magnify" viewBox="0 0 1024.5 576" height="768" preserveAspectRatio="xMidYMid meet" version="1.0"><defs><clipPath id="56a498f3b1"><path d="M 966 518 L 997 518 L 997 548 L 966 548 Z M 966 518 " clip-rule="nonzero"/></clipPath><clipPath id="70b625d7fb"><path d="M 966.429688 519.039062 L 995.65625 518.289062 L 996.402344 547.515625 L 967.175781 548.265625 Z M 966.429688 519.039062 " clip-rule="nonzero"/></clipPath><clipPath id="1a36f83fdd"><path d="M 966.429688 519.039062 L 995.65625 518.289062 L 996.402344 547.515625 L 967.175781 548.265625 Z M 966.429688 519.039062 " clip-rule="nonzero"/></clipPath><clipPath id="3f90da5127"><path d="M 966.429688 519.039062 L 995.65625 518.289062 L 996.402344 547.515625 L 967.175781 548.265625 Z M 966.429688 519.039062 " clip-rule="nonzero"/></clipPath><clipPath id="7f10a18a84"><path d="M 328 105 L 695.953125 105 L 695.953125 471.296875 L 328 471.296875 Z M 328 105 " clip-rule="nonzero"/></clipPath></defs><g clip-path="url(#56a498f3b1)"><g clip-path="url(#70b625d7fb)"><g clip-path="url(#1a36f83fdd)"><g clip-path="url(#3f90da5127)"><path fill="#000000" d="M 993.730469 531.785156 C 995.035156 530.828125 995.867188 529.273438 995.824219 527.535156 C 995.753906 524.867188 993.648438 522.726562 991.039062 522.578125 C 990.132812 520.9375 988.386719 519.90625 986.488281 519.957031 C 985.917969 519.96875 985.359375 520.085938 984.820312 520.296875 C 983.839844 519.269531 982.480469 518.699219 981.042969 518.734375 C 979.605469 518.773438 978.277344 519.414062 977.351562 520.488281 C 976.804688 520.304688 976.238281 520.21875 975.664062 520.234375 C 973.769531 520.28125 972.078125 521.398438 971.257812 523.082031 C 968.660156 523.363281 966.664062 525.613281 966.734375 528.28125 C 966.777344 530.019531 967.691406 531.53125 969.039062 532.417969 L 967.074219 535.90625 C 966.925781 536.167969 966.902344 536.476562 967 536.757812 C 967.4375 537.964844 968.441406 538.839844 969.695312 539.105469 C 969.980469 539.164062 970.265625 539.1875 970.546875 539.179688 C 971.503906 539.15625 972.417969 538.757812 973.097656 538.039062 L 973.292969 537.832031 C 973.472656 538.554688 973.664062 539.273438 973.878906 539.980469 C 974.34375 541.488281 975.34375 542.800781 976.695312 543.738281 C 977.128906 546.191406 979.28125 548.019531 981.792969 547.953125 C 984.3125 547.890625 986.359375 545.960938 986.664062 543.484375 C 987.96875 542.480469 988.898438 541.113281 989.285156 539.585938 C 989.464844 538.867188 989.621094 538.140625 989.757812 537.40625 L 989.964844 537.605469 C 990.683594 538.289062 991.613281 538.640625 992.570312 538.617188 C 992.851562 538.609375 993.140625 538.570312 993.421875 538.496094 C 994.65625 538.167969 995.617188 537.242188 995.988281 536.015625 C 996.074219 535.730469 996.035156 535.421875 995.875 535.171875 Z M 971.625 536.632812 C 971.226562 537.054688 970.675781 537.226562 970.109375 537.109375 C 969.6875 537.019531 969.335938 536.785156 969.105469 536.441406 L 970.945312 533.171875 C 971.269531 533.230469 971.597656 533.257812 971.9375 533.25 C 972.113281 533.242188 972.285156 533.21875 972.457031 533.195312 C 972.546875 533.9375 972.65625 534.671875 972.789062 535.40625 Z M 981.738281 545.917969 C 980.75 545.941406 979.84375 545.476562 979.269531 544.734375 C 979.890625 544.746094 980.515625 544.605469 981.0625 544.273438 C 981.292969 544.136719 981.5 543.976562 981.683594 543.792969 C 981.878906 543.964844 982.09375 544.117188 982.328125 544.242188 C 982.851562 544.519531 983.425781 544.652344 984 544.636719 C 984.046875 544.636719 984.09375 544.621094 984.140625 544.617188 C 983.601562 545.382812 982.730469 545.890625 981.738281 545.917969 Z M 987.316406 539.085938 C 986.964844 540.488281 985.945312 541.714844 984.523438 542.453125 C 984.132812 542.652344 983.667969 542.648438 983.285156 542.441406 C 982.996094 542.289062 982.820312 542.027344 982.726562 541.726562 L 984.191406 539.492188 C 984.382812 539.199219 984.226562 538.714844 983.945312 538.71875 L 979.167969 538.84375 C 978.886719 538.851562 978.757812 539.34375 978.964844 539.625 L 980.542969 541.78125 C 980.464844 542.085938 980.300781 542.355469 980.019531 542.527344 C 979.644531 542.75 979.179688 542.78125 978.78125 542.597656 C 977.324219 541.9375 976.246094 540.761719 975.820312 539.382812 C 975.136719 537.148438 974.667969 534.835938 974.417969 532.5 C 974.46875 532.46875 974.527344 532.445312 974.578125 532.414062 C 975.546875 533.699219 977.09375 534.476562 978.738281 534.433594 C 979.699219 534.410156 980.625 534.105469 981.421875 533.5625 C 982.246094 534.0625 983.1875 534.320312 984.148438 534.296875 C 985.792969 534.253906 987.296875 533.394531 988.203125 532.0625 C 988.253906 532.09375 988.308594 532.117188 988.363281 532.144531 C 988.230469 534.484375 987.886719 536.816406 987.316406 539.085938 Z M 988.578125 529.792969 C 988.566406 529.78125 988.546875 529.78125 988.535156 529.765625 C 988.535156 529.765625 988.53125 529.765625 988.53125 529.761719 C 988.019531 529.214844 987.722656 528.5 987.707031 527.746094 C 987.691406 527.183594 987.222656 526.738281 986.664062 526.75 C 986.105469 526.765625 985.660156 527.234375 985.675781 527.796875 C 985.703125 528.832031 986.054688 529.8125 986.648438 530.640625 C 986.136719 531.585938 985.183594 532.230469 984.097656 532.257812 C 983.359375 532.277344 982.628906 532.011719 982.050781 531.511719 C 981.851562 531.34375 981.605469 531.261719 981.363281 531.269531 C 981.121094 531.273438 980.878906 531.367188 980.691406 531.546875 C 980.136719 532.074219 979.425781 532.375 978.683594 532.394531 C 977.601562 532.421875 976.617188 531.832031 976.054688 530.914062 C 976.605469 530.054688 976.90625 529.054688 976.878906 528.023438 C 976.867188 527.460938 976.398438 527.015625 975.839844 527.027344 C 975.28125 527.042969 974.835938 527.511719 974.851562 528.074219 C 974.871094 528.828125 974.613281 529.558594 974.128906 530.132812 C 974.128906 530.132812 974.128906 530.136719 974.125 530.136719 C 974.113281 530.148438 974.097656 530.152344 974.085938 530.164062 C 973.511719 530.816406 972.730469 531.1875 971.886719 531.210938 C 970.207031 531.253906 968.804688 529.914062 968.761719 528.230469 C 968.71875 526.546875 970.046875 525.140625 971.71875 525.097656 L 971.722656 525.097656 C 971.753906 525.101562 971.890625 525.109375 971.917969 525.113281 C 972.402344 525.121094 972.773438 524.832031 972.910156 524.402344 C 973.464844 522.667969 975.511719 521.726562 977.21875 522.644531 C 977.695312 522.902344 978.289062 522.734375 978.566406 522.269531 C 979.105469 521.359375 980.054688 520.800781 981.09375 520.773438 C 982.136719 520.746094 983.109375 521.257812 983.695312 522.136719 C 983.996094 522.585938 984.597656 522.726562 985.0625 522.445312 C 986.722656 521.4375 988.816406 522.273438 989.457031 523.980469 C 989.613281 524.402344 989.996094 524.671875 990.480469 524.636719 C 990.496094 524.632812 990.644531 524.613281 990.695312 524.609375 C 992.363281 524.578125 993.75 525.910156 993.792969 527.589844 C 993.835938 529.273438 992.507812 530.679688 990.828125 530.722656 C 989.980469 530.746094 989.183594 530.414062 988.578125 529.792969 Z M 992.902344 536.523438 C 992.339844 536.667969 991.78125 536.527344 991.363281 536.128906 L 990.140625 534.960938 C 990.234375 534.222656 990.304688 533.480469 990.355469 532.738281 C 990.53125 532.753906 990.703125 532.765625 990.878906 532.761719 C 991.21875 532.753906 991.546875 532.707031 991.867188 532.636719 L 993.875 535.808594 C 993.660156 536.160156 993.320312 536.414062 992.902344 536.523438 Z M 992.902344 536.523438 " fill-opacity="1" fill-rule="nonzero"/></g></g></g></g><g clip-path="url(#7f10a18a84)"><path fill="#000000" d="M 667.410156 273.242188 C 684.101562 261.695312 695.097656 242.457031 695.097656 220.667969 C 695.097656 187.203125 669.257812 159.648438 636.488281 156.949219 C 625.589844 136.105469 603.941406 122.636719 580.078125 122.636719 C 572.855469 122.636719 565.78125 123.882812 558.945312 126.382812 C 546.945312 113.195312 530.039062 105.585938 511.917969 105.585938 C 493.792969 105.585938 476.886719 113.195312 464.890625 126.382812 C 458.050781 123.882812 450.976562 122.636719 443.753906 122.636719 C 419.890625 122.636719 398.242188 136.105469 387.34375 156.949219 C 354.578125 159.648438 328.734375 187.203125 328.734375 220.667969 C 328.734375 242.457031 339.730469 261.695312 356.421875 273.242188 L 330.546875 316.382812 C 328.632812 319.582031 328.21875 323.460938 329.382812 327.007812 C 334.472656 342.273438 346.855469 353.59375 362.515625 357.292969 C 366.09375 358.140625 369.667969 358.539062 373.230469 358.539062 C 385.296875 358.539062 396.910156 353.8125 405.699219 345.019531 L 408.230469 342.484375 C 410.222656 351.601562 412.40625 360.667969 414.917969 369.628906 C 420.25 388.664062 432.421875 405.472656 449.144531 417.660156 C 453.804688 448.539062 480.308594 472.140625 511.917969 472.140625 C 543.652344 472.140625 570.027344 448.589844 574.679688 417.671875 C 591.410156 405.476562 603.582031 388.667969 608.917969 369.628906 C 611.421875 360.664062 613.601562 351.59375 615.59375 342.476562 L 618.136719 345.019531 C 626.921875 353.8125 638.535156 358.539062 650.601562 358.539062 C 654.144531 358.539062 657.757812 358.140625 661.320312 357.292969 C 676.976562 353.597656 689.359375 342.273438 694.449219 327.007812 C 695.617188 323.460938 695.199219 319.582031 693.285156 316.382812 Z M 387.625 326.941406 C 382.484375 332.085938 375.476562 334.066406 368.386719 332.402344 C 363.097656 331.152344 358.753906 328.089844 355.941406 323.742188 L 380.1875 283.339844 C 384.21875 284.140625 388.371094 284.601562 392.632812 284.601562 C 394.84375 284.601562 397.03125 284.363281 399.214844 284.128906 C 400.089844 293.425781 401.226562 302.691406 402.636719 311.917969 Z M 511.917969 446.566406 C 499.433594 446.566406 488.210938 440.4375 481.207031 430.957031 C 489.046875 431.304688 496.933594 429.734375 503.945312 425.769531 C 506.875 424.105469 509.535156 422.15625 511.917969 419.941406 C 514.277344 422.15625 516.957031 424.105469 519.886719 425.769531 C 526.359375 429.417969 533.550781 431.265625 540.753906 431.265625 C 541.351562 431.265625 541.9375 431.089844 542.535156 431.066406 C 535.546875 440.480469 524.398438 446.566406 511.917969 446.566406 Z M 584.289062 362.734375 C 579.410156 380.199219 566.199219 395.253906 548.058594 404.027344 C 543.101562 406.40625 537.261719 406.207031 532.46875 403.511719 C 528.886719 401.484375 526.753906 398.144531 525.667969 394.34375 L 544.828125 366.796875 C 547.324219 363.203125 545.554688 357.058594 542.019531 357.058594 L 481.8125 357.058594 C 478.277344 357.058594 476.507812 363.203125 479.003906 366.796875 L 498.179688 394.363281 C 497.109375 398.125 494.96875 401.472656 491.363281 403.511719 C 486.554688 406.207031 480.730469 406.425781 475.773438 404.011719 C 457.632812 395.253906 444.421875 380.203125 439.527344 362.734375 C 431.625 334.503906 426.5 305.363281 424.101562 276.042969 C 424.761719 275.664062 425.46875 275.378906 426.117188 274.976562 C 437.929688 291.394531 457.117188 301.648438 477.835938 301.648438 C 489.933594 301.648438 501.714844 298.136719 511.917969 291.609375 C 522.117188 298.136719 533.898438 301.648438 545.996094 301.648438 C 566.714844 301.648438 585.902344 291.394531 597.714844 274.976562 C 598.359375 275.375 599.0625 275.660156 599.71875 276.039062 C 597.316406 305.34375 592.195312 334.480469 584.289062 362.734375 Z M 603.175781 246.640625 C 603.027344 246.480469 602.796875 246.449219 602.640625 246.296875 C 602.625 246.28125 602.625 246.257812 602.609375 246.238281 C 596.320312 239.199219 592.859375 230.125 592.859375 220.667969 C 592.859375 213.609375 587.132812 207.878906 580.078125 207.878906 C 573.023438 207.878906 567.296875 213.609375 567.296875 220.667969 C 567.296875 233.644531 571.398438 246.074219 578.632812 256.640625 C 571.867188 268.328125 559.664062 276.074219 545.996094 276.074219 C 536.675781 276.074219 527.609375 272.53125 520.46875 266.085938 C 518.039062 263.90625 514.976562 262.804688 511.917969 262.804688 C 508.855469 262.804688 505.792969 263.90625 503.363281 266.085938 C 496.222656 272.53125 487.15625 276.074219 477.835938 276.074219 C 464.167969 276.074219 451.964844 268.328125 445.199219 256.640625 C 452.433594 246.074219 456.535156 233.644531 456.535156 220.667969 C 456.535156 213.609375 450.8125 207.878906 443.753906 207.878906 C 436.699219 207.878906 430.976562 213.609375 430.976562 220.667969 C 430.976562 230.125 427.511719 239.199219 421.222656 246.238281 C 421.207031 246.257812 421.203125 246.28125 421.1875 246.300781 C 421.03125 246.453125 420.804688 246.480469 420.65625 246.640625 C 413.25 254.632812 403.300781 259.027344 392.632812 259.027344 C 371.5 259.027344 354.292969 241.8125 354.292969 220.667969 C 354.292969 199.539062 371.464844 182.339844 392.515625 182.339844 L 392.566406 182.339844 C 392.949219 182.390625 394.664062 182.574219 395.03125 182.589844 C 401.121094 182.871094 405.863281 179.359375 407.726562 174.03125 C 415.25 152.453125 441.324219 141.316406 462.507812 153.371094 C 468.449219 156.765625 475.953125 154.820312 479.617188 149.089844 C 486.703125 137.851562 498.785156 131.160156 511.914062 131.160156 C 525.046875 131.160156 537.125 137.851562 544.214844 149.089844 C 547.84375 154.820312 555.367188 156.765625 561.324219 153.371094 C 582.507812 141.28125 608.582031 152.4375 616.105469 174.03125 C 617.96875 179.359375 622.660156 182.890625 628.800781 182.589844 C 629 182.574219 630.847656 182.371094 631.480469 182.304688 C 652.480469 182.457031 669.539062 199.605469 669.539062 220.667969 C 669.539062 241.8125 652.332031 259.027344 631.199219 259.027344 C 620.53125 259.027344 610.582031 254.632812 603.175781 246.640625 Z M 655.445312 332.402344 C 648.320312 334.050781 641.332031 332.066406 636.207031 326.941406 L 621.183594 311.910156 C 622.59375 302.683594 623.730469 293.421875 624.609375 284.128906 C 626.796875 284.363281 628.984375 284.601562 631.199219 284.601562 C 635.460938 284.601562 639.613281 284.140625 643.644531 283.339844 L 667.890625 323.742188 C 665.078125 328.089844 660.734375 331.152344 655.445312 332.402344 Z M 655.445312 332.402344 " fill-opacity="1" fill-rule="nonzero"/></g></svg>