<svg xmlns="http://www.w3.org/2000/svg" xmlns:xlink="http://www.w3.org/1999/xlink" width="2000" zoomAndPan="magnify" viewBox="0 0 1500 1499.999933" height="2000" preserveAspectRatio="xMidYMid meet" version="1.0"><defs><g/><clipPath id="d98add527c"><path d="M 58 62 L 1442 62 L 1442 1441.210938 L 58 1441.210938 Z M 58 62 " clip-rule="nonzero"/></clipPath></defs><g clip-path="url(#d98add527c)"><path fill="#ffffff" d="M 1336.550781 694.324219 C 1399.519531 650.789062 1441.003906 578.257812 1441.003906 496.09375 C 1441.003906 369.921875 1343.519531 266.03125 1219.917969 255.863281 C 1178.800781 177.273438 1097.132812 126.488281 1007.117188 126.488281 C 979.875 126.488281 953.195312 131.195312 927.394531 140.613281 C 882.136719 90.894531 818.359375 62.207031 750 62.207031 C 681.640625 62.207031 617.863281 90.894531 572.601562 140.613281 C 546.804688 131.195312 520.125 126.488281 492.882812 126.488281 C 402.863281 126.488281 321.199219 177.273438 280.082031 255.863281 C 156.480469 266.03125 58.996094 369.921875 58.996094 496.09375 C 58.996094 578.257812 100.480469 650.789062 163.449219 694.324219 L 65.835938 856.976562 C 58.617188 869.03125 57.050781 883.65625 61.441406 897.027344 C 80.652344 954.589844 127.355469 997.273438 186.425781 1011.210938 C 199.921875 1014.414062 213.417969 1015.917969 226.851562 1015.917969 C 272.359375 1015.917969 316.175781 998.089844 349.320312 964.945312 L 358.878906 955.390625 C 366.398438 989.761719 374.621094 1023.941406 384.097656 1057.726562 C 404.21875 1129.496094 450.125 1192.863281 513.214844 1238.8125 C 530.796875 1355.238281 630.773438 1444.21875 750 1444.21875 C 869.710938 1444.21875 969.203125 1355.429688 986.753906 1238.863281 C 1049.863281 1192.878906 1095.777344 1129.507812 1115.902344 1057.726562 C 1125.359375 1023.917969 1133.578125 989.726562 1141.089844 955.359375 L 1150.679688 964.949219 C 1183.824219 998.089844 1227.640625 1015.917969 1273.148438 1015.917969 C 1286.519531 1015.917969 1300.140625 1014.414062 1313.574219 1011.210938 C 1372.644531 997.277344 1419.347656 954.589844 1438.558594 897.027344 C 1442.953125 883.65625 1441.382812 869.03125 1434.164062 856.976562 Z M 281.148438 896.777344 C 261.75 916.171875 235.324219 923.640625 208.582031 917.363281 C 188.621094 912.65625 172.238281 901.105469 161.628906 884.722656 L 253.089844 732.394531 C 268.292969 735.410156 283.964844 737.144531 300.042969 737.144531 C 308.382812 737.144531 316.625 736.25 324.863281 735.371094 C 328.167969 770.417969 332.460938 805.347656 337.777344 840.144531 L 281.148438 896.773438 Z M 750 1347.800781 C 702.914062 1347.800781 660.574219 1324.695312 634.164062 1288.957031 C 663.730469 1290.257812 693.476562 1284.335938 719.929688 1269.394531 C 730.980469 1263.117188 741.023438 1255.773438 750 1247.425781 C 758.914062 1255.773438 769.019531 1263.117188 780.066406 1269.394531 C 804.484375 1283.144531 831.605469 1290.109375 858.785156 1290.109375 C 861.03125 1290.109375 863.25 1289.453125 865.496094 1289.359375 C 839.132812 1324.855469 797.085938 1347.800781 750 1347.800781 Z M 1023 1031.738281 C 1004.605469 1097.585938 954.765625 1154.332031 886.34375 1187.414062 C 867.636719 1196.390625 845.601562 1195.636719 827.523438 1185.46875 C 814.019531 1177.835938 805.976562 1165.238281 801.871094 1150.914062 L 874.144531 1047.054688 C 883.574219 1033.5 876.894531 1010.332031 863.558594 1010.332031 L 636.4375 1010.332031 C 623.101562 1010.332031 616.425781 1033.5 625.855469 1047.054688 L 698.175781 1150.984375 C 694.148438 1165.160156 686.066406 1177.78125 672.472656 1185.46875 C 654.332031 1195.636719 632.363281 1196.453125 613.65625 1187.351562 C 545.234375 1154.332031 495.390625 1097.585938 476.9375 1031.738281 C 447.121094 925.300781 427.792969 815.425781 418.746094 704.878906 C 421.238281 703.453125 423.902344 702.375 426.34375 700.863281 C 470.910156 762.757812 543.289062 801.425781 621.441406 801.425781 C 667.078125 801.425781 711.519531 788.179688 750 763.570312 C 788.480469 788.179688 832.921875 801.425781 878.558594 801.425781 C 956.710938 801.425781 1029.089844 762.757812 1073.65625 700.863281 C 1076.085938 702.367188 1078.738281 703.445312 1081.214844 704.859375 C 1072.144531 815.351562 1052.832031 925.210938 1023 1031.738281 Z M 1094.246094 594.023438 C 1093.683594 593.414062 1092.820312 593.308594 1092.238281 592.730469 C 1092.179688 592.664062 1092.171875 592.582031 1092.113281 592.515625 C 1068.382812 565.960938 1055.328125 531.75 1055.328125 496.09375 C 1055.328125 469.480469 1033.734375 447.886719 1007.117188 447.886719 C 980.503906 447.886719 958.90625 469.480469 958.90625 496.09375 C 958.90625 545.019531 974.375 591.882812 1001.675781 631.734375 C 976.144531 675.789062 930.109375 705.003906 878.558594 705.003906 C 843.40625 705.003906 809.195312 691.632812 782.265625 667.339844 C 773.101562 659.117188 761.550781 654.972656 750 654.972656 C 738.449219 654.972656 726.898438 659.117188 717.734375 667.339844 C 690.804688 691.632812 656.59375 705.003906 621.441406 705.003906 C 569.886719 705.003906 523.855469 675.789062 498.324219 631.734375 C 525.625 591.882812 541.089844 545.019531 541.089844 496.09375 C 541.089844 469.480469 519.496094 447.886719 492.882812 447.886719 C 466.265625 447.886719 444.671875 469.480469 444.671875 496.09375 C 444.671875 531.75 431.617188 565.960938 407.886719 592.515625 C 407.824219 592.585938 407.816406 592.675781 407.753906 592.746094 C 407.167969 593.316406 406.308594 593.421875 405.753906 594.023438 C 377.816406 624.152344 340.28125 640.722656 300.042969 640.722656 C 220.320312 640.722656 155.414062 575.816406 155.414062 496.09375 C 155.414062 416.4375 220.195312 351.59375 299.601562 351.59375 L 299.792969 351.59375 C 301.234375 351.78125 307.699219 352.472656 309.082031 352.535156 C 332.054688 353.601562 349.945312 340.355469 356.976562 320.269531 C 385.351562 238.914062 483.714844 196.917969 563.625 242.367188 C 586.035156 255.171875 614.347656 247.828125 628.15625 226.234375 C 654.898438 183.863281 700.472656 158.628906 750 158.628906 C 799.527344 158.628906 845.101562 183.863281 871.839844 226.234375 C 885.527344 247.828125 913.898438 255.171875 936.371094 242.367188 C 1016.28125 196.792969 1114.648438 238.851562 1143.019531 320.269531 C 1150.050781 340.355469 1167.753906 353.664062 1190.917969 352.535156 C 1191.671875 352.472656 1198.636719 351.71875 1201.023438 351.464844 C 1280.242188 352.03125 1344.585938 416.6875 1344.585938 496.09375 C 1344.585938 575.816406 1279.675781 640.722656 1199.957031 640.722656 C 1159.71875 640.722656 1122.179688 624.152344 1094.246094 594.023438 Z M 1291.417969 917.363281 C 1264.550781 923.578125 1238.183594 916.109375 1218.851562 896.777344 L 1162.183594 840.105469 C 1167.5 805.316406 1171.789062 770.402344 1175.097656 735.371094 C 1183.347656 736.253906 1191.601562 737.144531 1199.957031 737.144531 C 1216.035156 737.144531 1231.703125 735.410156 1246.910156 732.394531 L 1338.371094 884.722656 C 1327.761719 901.105469 1311.378906 912.65625 1291.417969 917.367188 Z M 1291.417969 917.363281 " fill-opacity="1" fill-rule="nonzero"/></g><g fill="#ffffff" fill-opacity="1"><g transform="translate(741.482777, 774.374913)"><g><path d="M 4.75 -3.3125 C 4.75 -4.707031 5.066406 -5.765625 5.703125 -6.484375 C 6.335938 -7.203125 7.25 -7.5625 8.4375 -7.5625 C 9.644531 -7.5625 10.585938 -7.203125 11.265625 -6.484375 C 11.941406 -5.765625 12.28125 -4.707031 12.28125 -3.3125 C 12.28125 -1.957031 11.9375 -0.914062 11.25 -0.1875 C 10.5625 0.539062 9.625 0.90625 8.4375 0.90625 C 7.375 0.90625 6.492188 0.578125 5.796875 -0.078125 C 5.097656 -0.734375 4.75 -1.8125 4.75 -3.3125 Z M 4.75 -3.3125 "/></g></g></g></svg>